<svg xmlns="http://www.w3.org/2000/svg" viewBox="0 0 323.67 231.2"><defs><style>.cls-1{fill:#c0d3fe;}.cls-2{fill:#5487fb;}.cls-3{fill:#306efb;}.cls-4{fill:#1c60fb;}.cls-5{fill:#88adfd;}.cls-6{fill:#487ffc;}.cls-7{fill:#719bfc;}.cls-8{fill:#3e78fc;}.cls-9{fill:#96b5fd;}</style></defs><title>logo</title><g id="Layer_2" data-name="Layer 2"><g id="Layer_1-2" data-name="Layer 1"><polygon class="cls-1" points="233.95 11.6 123.57 28.55 167.12 74.09 233.95 11.6"/><polygon class="cls-2" points="34 123.22 107.77 63.09 160.17 125.04 34 123.22"/><polygon class="cls-3" points="34.75 47.86 34 123.22 107.77 63.09 59.7 0 34.75 47.86"/><path class="cls-4" d="M0,1.72,34.75,47.86,59.7,0Z"/><polygon class="cls-4" points="148.22 164.68 160.17 125.04 34 123.22 148.22 164.68"/><polygon class="cls-5" points="232.15 231.2 148.22 164.68 160.17 125.04 272.5 201.65 232.15 231.2"/><polygon class="cls-6" points="267.83 168.56 249.13 185.72 160.17 125.04 267.83 168.56"/><polygon class="cls-7" points="152.12 43.56 202.22 96.24 160.17 125.04 107.77 63.09 152.12 43.56"/><polygon class="cls-8" points="323.67 64.76 202.22 96.24 152.12 43.56 323.67 64.76"/><polygon class="cls-9" points="123.57 28.55 141.77 48.12 107.77 63.09 101.08 54.31 123.57 28.55"/></g></g></svg>